Motion_mu12
version=1
nRows=10
nColumns=43
inDegrees=yes
endheader
time	pelvis_tilt	pelvis_list	pelvis_rotation	pelvis_tx	pelvis_ty	pelvis_tz	hip_flexion_r	hip_adduction_r	hip_rotation_r	knee_angle_r	ankle_angle_r	subtalar_angle_r	mtp_angle_r	hip_flexion_l	hip_adduction_l	hip_rotation_l	knee_angle_l	ankle_angle_l	subtalar_angle_l	mtp_angle_l	lumbar_extension	lumbar_bending	lumbar_rotation	neck_flexion	neck_lateral_bending	neck_rotation	arm_flex_r	arm_add_r	arm_rot_r	elbow_flex_r	pro_sup_r	wrist_flex_r	wrist_dev_r	hand_finger_flex_r	arm_flex_l	arm_add_l	arm_rot_l	elbow_flex_l	pro_sup_l	wrist_flex_l	wrist_dev_l	hand_finger_flex_l
      1.69000000	      1.12884167	      0.51562264	    -92.57711093	     -0.02671627	      0.94136841	      1.02757851	     -1.27885679	     -4.37301949	     -4.93142899	    -47.35773446	    -11.76462339	     -0.06347351	     38.40760499	     20.22464089	     -1.85538944	     -5.25158398	    -76.82795514	    -17.50512664	    -11.00346891	      2.90431071	      8.07837563	     -0.74620330	      7.52158974	    -15.96125868	     -3.07452673	     -7.34942641	    -33.97060981	   -150.00170760	   -134.84554596	     43.77942144	     88.18600500	     66.50635226	     11.56813293	     76.21495057	    139.94696935	    -21.96490881	     28.57929751	     40.11834024	    110.31493158	     61.66465353	      5.14707726	     71.66013151
      1.69250000	      1.10158996	      0.27126588	    -92.55775871	     -0.02667871	      0.94173477	      1.03079805	     -1.35812547	     -4.41273432	     -4.98980463	    -47.86953167	    -11.98466561	     -0.17060433	     38.29691450	     20.28719099	     -1.90684170	     -5.35078157	    -77.25156332	    -17.40104471	    -10.93268044	      2.94970598	      8.05189262	     -0.72650468	      7.49296020	    -16.13602408	     -3.13850421	     -7.32505565	    -34.09278459	   -149.93132603	   -134.87856225	     43.90854175	     88.13953982	     66.53244189	     11.57731683	     76.22527412	    139.82539754	    -21.98131972	     28.51360725	     40.22649245	    110.30895225	     61.73476541	      5.20808076	     71.62729543
      1.69500000	      1.10703311	      0.07084379	    -92.60518484	     -0.02648092	      0.94226786	      1.03435414	     -1.35974471	     -4.52031095	     -5.01156409	    -48.34132561	    -13.07301686	     -0.55463837	     37.73085190	     20.26326246	     -1.86435816	     -5.44271712	    -77.53003055	    -16.94027317	    -10.71202878	      3.11894740	      8.14031407	     -0.69255436	      7.49123381	    -16.26023641	     -3.05474710	     -7.33197420	    -34.37261224	   -149.93009678	   -135.03038125	     44.01906852	     88.04988013	     66.54301891	     11.70112131	     76.27545588	    139.49180962	    -22.07485683	     28.19894373	     40.55439201	    110.30052381	     61.92052562	      5.45662612	     71.49453104
      1.69750000	      1.06871381	     -0.17684862	    -92.59870529	     -0.02645388	      0.94263124	      1.03759466	     -1.40890394	     -4.56460138	     -5.09359352	    -48.91911776	    -13.26124842	     -0.62893686	     37.60616836	     20.29866876	     -1.91974326	     -5.51979727	    -77.91004056	    -16.87521992	    -10.70664878	      3.15196722	      8.11043841	     -0.65975316	      7.46758130	    -16.41676601	     -3.10263974	     -7.31556749	    -34.50351167	   -149.86156009	   -135.05227217	     44.15070032	     88.01039276	     66.56519620	     11.71494683	     76.28929120	    139.39224762	    -22.08809229	     28.15266950	     40.63446873	    110.29323982	     61.98457950	      5.50515312	     71.46999497
      1.70000000	      1.05015823	     -0.42884749	    -92.60325027	     -0.02638548	      0.94305192	      1.04080779	     -1.40498467	     -4.65649695	     -5.18417571	    -49.54290033	    -13.80680939	     -0.70707427	     37.37520932	     20.31436277	     -1.91990939	     -5.61112683	    -78.27742078	    -16.69754322	    -10.74391319	      3.20293478	      8.07838606	     -0.64495986	      7.44634990	    -16.55378435	     -3.07726409	     -7.32494900	    -34.65922827	   -149.80178818	   -135.12438713	     44.28073583	     87.95993312	     66.58475090	     11.74161987	     76.31341392	    139.25100284	    -22.12391396	     28.07305240	     40.77805260	    110.26210599	     62.07398485	      5.55408181	     71.44094464
      1.70250000	      1.05688761	     -0.66602284	    -92.60156606	     -0.02615972	      0.94350623	      1.04404699	     -1.39226476	     -4.77871045	     -5.24644544	    -50.12533640	    -14.58809154	     -0.82573451	     37.05234030	     20.32814867	     -1.89295650	     -5.72383418	    -78.60870960	    -16.46648935	    -10.82144520	      3.25779772	      8.06774332	     -0.64807311	      7.42326250	    -16.68063889	     -3.04616193	     -7.34228507	    -34.83571014	   -149.73397898	   -135.22926803	     44.42258330	     87.90586223	     66.60344886	     11.78189879	     76.34525255	    139.08948534	    -22.16610623	     27.98057390	     40.96231169	    110.22216379	     62.17467542	      5.61111869	     71.40833812
      1.70500000	      1.10629166	     -0.83497031	    -92.65923156	     -0.02584396	      0.94408673	      1.04775010	     -1.40196216	     -4.91026080	     -5.18901589	    -50.46803753	    -15.96392381	     -1.33404618	     36.20367500	     20.30199418	     -1.78916848	     -5.88368183	    -78.80614533	    -16.14923727	    -10.97841784	      3.33264732	      8.21401929	     -0.64950979	      7.43187834	    -16.76673328	     -2.97469117	     -7.37129679	    -35.16994854	   -149.73562058	   -135.43402034	     44.55245273	     87.85434493	     66.59758164	     11.95534950	     76.42066466	    138.78143331	    -22.26541164	     27.78406715	     41.25107551	    110.20115730	     62.33216001	      5.82675707	     71.31209296
      1.70750000	      1.06551754	     -1.09262102	    -92.63985188	     -0.02582313	      0.94448755	      1.05088013	     -1.43553892	     -4.94415268	     -5.22367389	    -51.06097915	    -16.26910967	     -1.45060401	     35.98474782	     20.33855474	     -1.84998953	     -5.96178844	    -79.18579910	    -16.08676745	    -11.04940101	      3.34485157	      8.15820319	     -0.62540625	      7.39468330	    -16.94827910	     -3.02842931	     -7.35953138	    -35.29310667	   -149.65634729	   -135.49153447	     44.69163899	     87.81411540	     66.61461922	     11.97747974	     76.43996563	    138.68664296	    -22.27515467	     27.75420056	     41.35696126	    110.18008653	     62.39505607	      5.86916019	     71.29217982
      1.71000000	      0.78595251	     -1.28317167	    -92.81182217	     -0.02623435	      0.94508662	      1.05401470	     -1.37585486	     -4.48990476	     -4.78935176	    -51.49987563	    -17.40855870	     -2.98515478	     31.40215823	     20.38799264	     -2.20834419	     -6.12739849	    -79.55877645	    -15.90329667	    -11.38998664	      3.27371419	      8.19192542	     -0.29182937	      7.38255073	    -17.01236717	     -3.01739700	     -7.38277593	    -35.67422280	   -149.75448771	   -135.95534065	     44.87843246	     87.60038633	     66.34582879	     12.86020228	     76.76389405	    138.30548466	    -22.33619987	     27.00292332	     41.87360816	    110.02932416	     62.72912922	      6.95145168	     70.76496840
      1.71250000	      0.77731003	     -1.52307362	    -92.77149950	     -0.02601673	      0.94557616	      1.05737598	     -1.40444808	     -4.61320144	     -4.89931562	    -52.05849809	    -17.97038275	     -2.83111570	     31.18049021	     20.37902015	     -2.21086410	     -6.19738707	    -79.82873444	    -15.74021170	    -11.47407982	      3.28683556	      8.19503927	     -0.28243495	      7.38320041	    -17.22947482	     -3.09344379	     -7.36725113	    -35.79922615	   -149.63020397	   -135.92798003	     45.06161140	     87.50392847	     66.38286898	     12.80616720	     76.76997231	    138.17216188	    -22.35510169	     27.08706670	     41.95235544	    110.00415513	     62.81922081	      6.94782956	     70.76655120
